<?xml version="1.0" encoding="UTF-8"?>
<svg xmlns="http://www.w3.org/2000/svg" viewBox="0 0 216.29 216.29">
  <g>
    <path fill="white" d="M49.61,19.74l-15.23,137.63c-.62,5.64-3.15,10.91-7.17,14.92l-3.38,3.38C-10.41,133.07-7.75,70.62,31.77,31.1c4.82-4.81,9.99-9.08,15.4-12.8,1.1-.76,2.58.11,2.43,1.43Z"/>
    <path fill="white" d="M59.17,181.91l137.4-15.24c1.33-.15,2.19,1.33,1.44,2.43-3.72,5.43-8,10.6-12.82,15.42-39.48,39.48-101.84,42.16-144.42,8.05l3.49-3.49c4.01-4.01,9.28-6.54,14.92-7.17Z"/>
    <path fill="white" d="M79.54,119.97l-22.35,22.35L72.29,6.49c.07-.6.48-1.12,1.05-1.31C80.85,2.6,88.61.87,96.44,0c.98-.11,1.81.74,1.7,1.72l-11.43,103.31c-.62,5.64-3.15,10.91-7.17,14.92Z"/>
    <path fill="white" d="M131.89,67.64l-22.35,22.35L119.37,1.45c.09-.85.86-1.48,1.72-1.38,7.46.86,14.84,2.5,22.02,4.91.7.23,1.13.93,1.05,1.66l-5.1,46.07c-.62,5.64-3.15,10.91-7.17,14.92Z"/>
    <path fill="white" d="M199,52.16l-31.29,3.47c-4.07.45-7.5-2.99-7.05-7.05l3.48-31.28c.13-1.14,1.4-1.76,2.37-1.15,6.63,4.21,12.89,9.18,18.67,14.97,5.78,5.78,10.78,12.06,14.97,18.69.61.96-.02,2.24-1.16,2.37Z"/>
    <path fill="white" d="M214.84,96.92l-88.24,9.8,22.32-22.32c4.01-4.01,9.28-6.54,14.92-7.17l45.82-5.08c.73-.08,1.42.36,1.66,1.05,2.41,7.18,4.05,14.54,4.91,22,.1.85-.53,1.62-1.38,1.72Z"/>
    <path fill="white" d="M216.28,119.85c-.86,7.83-2.59,15.59-5.16,23.1-.2.57-.71.98-1.31,1.05l-135.54,15.05,22.32-22.3c4.01-4.01,9.27-6.54,14.91-7.16l103.06-11.43c.98-.11,1.83.72,1.72,1.7Z"/>
  </g>
</svg>
