<svg width="46" height="46" viewBox="0 0 46 46" fill="none" xmlns="http://www.w3.org/2000/svg">
<mask id="path-1-inside-1_4240_27768" fill="white">
<path d="M11.1733 8.12861C11.6401 8.28992 11.6401 8.28992 12.1069 8.51735C12.2369 8.57944 12.2369 8.57944 12.3695 8.64279C12.6459 8.77533 12.9207 8.91067 13.1956 9.04629C13.3702 9.13093 13.545 9.21537 13.7198 9.29961C13.8084 9.34242 13.897 9.38523 13.9883 9.42934C14.1764 9.51978 14.3648 9.60961 14.5534 9.6989C15.1513 9.98296 15.7381 10.2813 16.3219 10.5934C18.5405 11.7446 20.4294 12.0908 22.9162 12.0457C23.0872 12.0449 23.2582 12.0441 23.4343 12.0433C26.486 12.0153 28.7634 11.3546 31.3479 9.77936C32.0606 9.34786 32.8126 9.00539 33.5715 8.66392C33.6865 8.60813 33.8015 8.55233 33.92 8.49485C34.6179 8.16817 35.145 8.01122 35.9167 8.12861C36.5429 8.79318 36.9093 9.62519 37.3147 10.4338C37.4458 10.694 37.5797 10.9527 37.7138 11.2114C37.7982 11.3786 37.8825 11.5459 37.9666 11.7133C38.081 11.9385 38.081 11.9385 38.1977 12.1684C38.6023 13.2564 38.2156 14.3364 37.9629 15.426C37.9221 15.6072 37.8815 15.7886 37.8411 15.9699C37.6702 16.736 37.4981 17.5017 37.3208 18.2663C37.2121 18.7358 37.1067 19.2059 37.0035 19.6765C36.9446 19.9402 36.8822 20.203 36.8197 20.4658C36.591 21.5176 36.5771 22.229 37.0043 23.2193C37.0432 23.3186 37.0821 23.4179 37.1222 23.5203C37.2412 23.8192 37.3672 24.1142 37.495 24.4095C37.5874 24.6286 37.6796 24.8479 37.7717 25.0672C37.9149 25.4063 38.0588 25.745 38.205 26.0828C38.3476 26.4134 38.4866 26.7453 38.6251 27.0775C38.6691 27.177 38.7132 27.2764 38.7585 27.3789C39.261 28.6023 38.8828 29.6749 38.4971 30.8869C38.4564 31.0169 38.4156 31.147 38.3736 31.281C38.2877 31.5538 38.2012 31.8264 38.1141 32.0988C37.9812 32.5161 37.8515 32.9343 37.722 33.3526C37.6379 33.6184 37.5535 33.8841 37.469 34.1497C37.4306 34.2746 37.3922 34.3995 37.3526 34.5282C37.315 34.644 37.2774 34.7598 37.2386 34.8791C37.2064 34.9807 37.1742 35.0824 37.141 35.1872C36.9673 35.5275 36.7882 35.6698 36.4605 35.8629C35.6908 35.9266 35.0914 35.8176 34.3485 35.5905C34.1581 35.5341 33.9677 35.4777 33.7773 35.4214C33.4824 35.3321 33.1877 35.2422 32.8932 35.1519C32.6055 35.0642 32.3172 34.9789 32.0288 34.8937C31.8584 34.8418 31.688 34.7898 31.5125 34.7362C30.9789 34.6308 30.5989 34.6541 30.0707 34.7753C29.738 35.0151 29.738 35.0151 29.4674 35.3361C28.9271 35.9152 28.3672 36.443 27.7595 36.9506C27.6587 37.0432 27.5578 37.1358 27.4539 37.2313C27.0174 37.5382 26.7988 37.5649 26.2711 37.5712C26.1113 37.5742 25.9516 37.5773 25.787 37.5804C25.5297 37.5807 25.5297 37.5807 25.2672 37.5809C25.001 37.5832 25.001 37.5832 24.7293 37.5854C24.3539 37.5881 23.9785 37.5885 23.6031 37.5877C23.1244 37.5868 22.646 37.5929 22.1674 37.6007C21.708 37.607 21.2487 37.6063 20.7893 37.6064C20.6186 37.6096 20.4479 37.6128 20.2721 37.6161C19.4624 37.6077 18.9188 37.5823 18.292 37.039C18.1367 36.8764 17.9841 36.711 17.835 36.5427C17.6769 36.3944 17.5176 36.2474 17.3565 36.1024C17.1302 35.8916 16.9043 35.6802 16.6786 35.4686C16.3499 35.1626 16.0344 34.8891 15.6598 34.6394C14.5191 34.6815 13.4241 35.0846 12.3363 35.4057C10.4013 35.9744 10.4013 35.9744 9.54189 35.8629C9.07487 35.586 8.91205 35.3475 8.74914 34.8352C8.68796 34.6473 8.68796 34.6473 8.62555 34.4556C8.56285 34.2529 8.56285 34.2529 8.49888 34.0462C8.45439 33.9068 8.40989 33.7675 8.36405 33.624C8.27039 33.3293 8.17766 33.0343 8.08578 32.7391C7.94521 32.2881 7.80142 31.8383 7.65714 31.3884C7.56649 31.1018 7.47603 30.8151 7.38577 30.5284C7.34287 30.3941 7.29997 30.2598 7.25577 30.1215C6.85867 28.8354 6.9524 28.1575 7.518 26.9511C9.33086 23.1897 9.33086 23.1897 8.88384 19.2084C8.57522 18.2776 8.40584 17.3099 8.21213 16.3499C8.14133 16.0039 8.06704 15.6589 7.99151 15.3139C7.94519 15.0994 7.89888 14.8848 7.85257 14.6703C7.8201 14.5243 7.8201 14.5243 7.78697 14.3755C7.56521 13.328 7.57338 12.5965 8.07031 11.6443C8.11461 11.556 8.1589 11.4678 8.20454 11.3769C8.29794 11.1919 8.39225 11.0073 8.48743 10.8231C8.63277 10.5416 8.77514 10.2588 8.91709 9.97565C9.00853 9.79536 9.10013 9.61515 9.19192 9.43503C9.25567 9.30884 9.25567 9.30884 9.32071 9.18011C9.80022 8.25683 10.0976 7.98513 11.1733 8.12861ZM11.0443 11.1982C10.7157 11.5862 10.4767 11.9947 10.2471 12.4451C10.2031 12.5243 10.159 12.6035 10.1136 12.6851C9.58596 13.7155 10.0108 14.8724 10.2461 15.9485C10.2751 16.0818 10.3041 16.2151 10.334 16.3524C10.3952 16.6323 10.4567 16.9121 10.5185 17.1919C10.6127 17.6205 10.7047 18.0496 10.7968 18.4788C10.8567 18.7513 10.9167 19.0239 10.9768 19.2964C11.004 19.4247 11.0312 19.553 11.0593 19.6852C11.086 19.8041 11.1128 19.9231 11.1403 20.0456C11.1632 20.1501 11.186 20.2546 11.2095 20.3623C11.3253 20.6804 11.4513 20.8365 11.7171 21.0441C12.5817 20.9957 13.4457 20.4671 14.2248 20.1088C14.4202 20.0195 14.6164 19.9317 14.8132 19.8455C16.2318 19.2235 17.219 18.5447 18.2429 17.3734C18.3224 17.2904 18.4019 17.2075 18.4839 17.1221C18.7439 16.8415 18.9085 16.616 18.9991 16.2417C18.8766 15.659 18.4169 15.4464 17.9455 15.1387C17.8428 15.069 17.7401 14.9994 17.6343 14.9276C17.2949 14.6983 16.9532 14.4724 16.6114 14.2465C16.3722 14.0861 16.133 13.9255 15.894 13.7648C15.412 13.4414 14.9289 13.1199 14.4447 12.7999C14.0062 12.5099 13.57 12.2172 13.1361 11.9204C12.9951 11.8245 12.9951 11.8245 12.8513 11.7266C12.678 11.6086 12.5051 11.4898 12.3328 11.3702C11.7015 10.9181 11.7015 10.9181 11.0443 11.1982ZM33.3591 11.563C33.1769 11.6898 32.9948 11.8166 32.8126 11.9434C32.7191 12.0096 32.6256 12.0758 32.5292 12.144C32.077 12.4619 31.6173 12.7685 31.1583 13.0765C30.9772 13.199 30.7961 13.3216 30.6151 13.4443C30.248 13.693 29.8809 13.9415 29.5136 14.1899C29.334 14.3116 29.1543 14.4333 28.9746 14.555C28.8937 14.6097 28.8129 14.6644 28.7295 14.7207C28.4962 14.879 28.2638 15.0384 28.0314 15.1981C27.9436 15.2575 27.8557 15.3169 27.7652 15.3781C27.2603 15.699 27.2603 15.699 26.9651 16.1965C27.1497 16.7777 27.5446 17.1456 27.9635 17.5773C28.0451 17.6658 28.1268 17.7543 28.2109 17.8455C29.2215 18.9098 30.4313 19.4777 31.7493 20.0906C32.0102 20.2124 32.2698 20.3366 32.5296 20.461C32.6962 20.539 32.863 20.6169 33.0298 20.6947C33.1795 20.7651 33.3292 20.8355 33.4835 20.9081C33.8862 21.0471 34.0387 21.0813 34.4212 20.9081C34.7363 20.5931 34.7655 20.4348 34.8634 20.0068C34.8938 19.8761 34.9241 19.7454 34.9554 19.6107C35.003 19.3981 35.003 19.3981 35.0516 19.1811C35.0847 19.0356 35.1178 18.89 35.152 18.7401C35.2218 18.4316 35.2912 18.1231 35.36 17.8144C35.4656 17.3428 35.5738 16.8719 35.6822 16.401C35.7497 16.1013 35.8171 15.8016 35.8843 15.5019C35.9169 15.3613 35.9494 15.2206 35.983 15.0757C36.2439 13.887 36.1051 13.1562 35.5428 12.0967C35.4972 12.0043 35.4517 11.9118 35.4047 11.8166C35.1359 11.3004 35.1359 11.3004 34.6643 10.9885C34.1154 10.9814 33.7867 11.2529 33.3591 11.563ZM16.3395 23.4912C16.2036 23.9585 16.1253 24.2687 16.3289 24.7217C16.7718 25.1371 17.2886 25.2206 17.869 25.3606C17.9824 25.3906 18.0958 25.4205 18.2126 25.4514C18.8679 25.617 19.4653 25.7197 20.1462 25.6665C20.5061 25.4766 20.5061 25.4766 20.69 25.1227C20.7125 24.6347 20.7125 24.6347 20.554 24.171C20.186 23.8323 19.854 23.6908 19.3719 23.5746C19.2522 23.5453 19.1325 23.5159 19.0092 23.4857C18.8853 23.4567 18.7614 23.4277 18.6337 23.3978C18.4463 23.3519 18.4463 23.3519 18.2551 23.3051C17.2429 23.0301 17.2429 23.0301 16.3395 23.4912ZM27.3772 23.3808C27.2544 23.4075 27.1316 23.4342 27.0052 23.4618C26.2669 23.6381 25.7793 23.8027 25.3124 24.4429C25.2882 24.9427 25.2882 24.9427 25.4483 25.3946C26.0141 25.7718 26.4581 25.7292 27.1204 25.6105C27.4605 25.5349 27.7966 25.4496 28.1334 25.3606C28.2489 25.3327 28.3644 25.3049 28.4834 25.2762C29.1358 25.1086 29.1358 25.1086 29.6735 24.7217C29.8771 24.2687 29.7988 23.9585 29.6629 23.4912C28.8923 22.8788 28.2644 23.1713 27.3772 23.3808ZM15.8625 27.5294C15.716 27.5503 15.5695 27.5712 15.4186 27.5927C15.2619 27.6157 15.1053 27.6386 14.9439 27.6622C14.7014 27.6975 14.7014 27.6975 14.454 27.7334C14.113 27.7832 13.772 27.8333 13.431 27.8836C12.907 27.9607 12.3827 28.0358 11.8584 28.111C11.5273 28.1595 11.1963 28.2082 10.8653 28.257C10.7076 28.2794 10.5498 28.3018 10.3873 28.3249C10.2425 28.3466 10.0977 28.3684 9.94855 28.3908C9.75645 28.4189 9.75645 28.4189 9.56047 28.4475C9.46461 28.4719 9.36875 28.4963 9.26999 28.5215C9.04851 28.9644 9.29152 29.3787 9.43833 29.8263C9.47107 29.9282 9.50382 30.0301 9.53755 30.1351C9.60713 30.3507 9.67722 30.5661 9.74778 30.7813C9.85584 31.1118 9.96171 31.4428 10.0674 31.774C10.1351 31.983 10.203 32.192 10.271 32.4009C10.3028 32.5005 10.3345 32.6 10.3672 32.7026C10.4469 32.9431 10.5372 33.1799 10.6295 33.4158C11.0505 33.6263 11.4126 33.4277 11.8414 33.2974C12.0338 33.2411 12.2262 33.1849 12.4187 33.1287C12.7213 33.0391 13.0237 32.949 13.3261 32.8584C13.6182 32.7712 13.9108 32.6858 14.2036 32.6006C14.2923 32.5734 14.381 32.5462 14.4723 32.5182C15.1209 32.3305 15.6714 32.2914 16.3395 32.3282C16.6359 32.4933 16.6359 32.4933 16.8663 32.7275C16.9557 32.8143 17.0451 32.901 17.1372 32.9904C17.2807 33.1337 17.2807 33.1337 17.4271 33.2798C17.6527 33.4849 17.8793 33.6888 18.1069 33.8916C18.2106 33.9856 18.3144 34.0795 18.4213 34.1763C18.6022 34.3382 18.6022 34.3382 18.7867 34.5034C18.8607 34.5808 18.9347 34.6582 19.011 34.7379C19.7343 35.453 20.2748 35.6064 21.2768 35.6149C21.4755 35.6197 21.4755 35.6197 21.6781 35.6245C21.9575 35.6293 22.2369 35.6316 22.5162 35.6314C22.9381 35.6335 23.3575 35.6507 23.7789 35.6688C25.0594 35.6939 26.0484 35.6629 27.0433 34.7896C27.371 34.4644 27.6783 34.1277 27.9752 33.7742C28.2306 33.4786 28.5156 33.2263 28.8132 32.9739C28.891 32.9059 28.9688 32.8379 29.049 32.7679C29.6178 32.3046 30.0425 32.2658 30.7505 32.3282C31.1203 32.3947 31.4773 32.4915 31.8381 32.5958C31.9852 32.6366 31.9852 32.6366 32.1352 32.6781C32.4444 32.7641 32.753 32.852 33.0617 32.94C33.2728 32.999 33.484 33.058 33.6952 33.1168C34.2096 33.2603 34.7234 33.4055 35.2369 33.5517C35.6326 32.5987 35.9774 31.6373 36.2906 30.6542C36.3335 30.5234 36.3764 30.3926 36.4207 30.2578C36.4611 30.1312 36.5016 30.0046 36.5433 29.8741C36.5797 29.761 36.6162 29.6479 36.6537 29.5314C36.7368 29.1829 36.7379 28.8784 36.7324 28.5215C35.7046 28.3622 34.6764 28.205 33.6481 28.0493C33.2984 27.9962 32.9489 27.9425 32.5994 27.8883C32.0964 27.8104 31.5931 27.7343 31.0898 27.6585C30.9342 27.634 30.7785 27.6095 30.6181 27.5843C29.6065 27.4343 28.7764 27.3417 27.8456 27.8412C27.745 27.8947 27.6444 27.9483 27.5407 28.0034C27.3883 28.0874 27.3883 28.0874 27.2327 28.1731C27.1279 28.2286 27.0231 28.284 26.9151 28.3412C26.3597 28.6062 26.3597 28.6062 25.9921 29.0653C26.0691 29.484 26.1607 29.8956 26.2603 30.3093C26.3984 30.9317 26.4185 31.4361 26.2641 32.0563C25.847 32.3343 25.7621 32.3623 25.2922 32.3633C25.1792 32.3642 25.0663 32.3651 24.9499 32.3659C24.8284 32.3654 24.7068 32.3648 24.5816 32.3643C24.4564 32.3645 24.3313 32.3648 24.2023 32.3651C23.9376 32.3653 23.6729 32.3647 23.4083 32.3636C23.0028 32.3622 22.5973 32.3636 22.1919 32.3653C21.9348 32.3652 21.6778 32.3648 21.4207 32.3643C21.2385 32.3651 21.2385 32.3651 21.0525 32.3659C20.8831 32.3647 20.8831 32.3647 20.7102 32.3633C20.6109 32.3631 20.5116 32.3629 20.4093 32.3627C20.1462 32.3282 20.1462 32.3282 19.7383 32.0563C19.5508 31.309 19.6397 30.6931 19.7978 29.9575C19.8179 29.858 19.8379 29.7586 19.8586 29.6561C19.9078 29.4136 19.9588 29.1714 20.0102 28.9294C19.6591 28.7309 19.3079 28.5327 18.9566 28.3346C18.8574 28.2785 18.7582 28.2224 18.656 28.1646C18.5596 28.1103 18.4632 28.056 18.3639 28C18.2315 27.9252 18.2315 27.9252 18.0964 27.849C18.0101 27.8017 17.9239 27.7545 17.835 27.7058C17.7484 27.6548 17.6618 27.6039 17.5725 27.5514C17.0235 27.322 16.4376 27.4466 15.8625 27.5294Z"/>
</mask>
<path d="M11.1733 8.12861C11.6401 8.28992 11.6401 8.28992 12.1069 8.51735C12.2369 8.57944 12.2369 8.57944 12.3695 8.64279C12.6459 8.77533 12.9207 8.91067 13.1956 9.04629C13.3702 9.13093 13.545 9.21537 13.7198 9.29961C13.8084 9.34242 13.897 9.38523 13.9883 9.42934C14.1764 9.51978 14.3648 9.60961 14.5534 9.6989C15.1513 9.98296 15.7381 10.2813 16.3219 10.5934C18.5405 11.7446 20.4294 12.0908 22.9162 12.0457C23.0872 12.0449 23.2582 12.0441 23.4343 12.0433C26.486 12.0153 28.7634 11.3546 31.3479 9.77936C32.0606 9.34786 32.8126 9.00539 33.5715 8.66392C33.6865 8.60813 33.8015 8.55233 33.92 8.49485C34.6179 8.16817 35.145 8.01122 35.9167 8.12861C36.5429 8.79318 36.9093 9.62519 37.3147 10.4338C37.4458 10.694 37.5797 10.9527 37.7138 11.2114C37.7982 11.3786 37.8825 11.5459 37.9666 11.7133C38.081 11.9385 38.081 11.9385 38.1977 12.1684C38.6023 13.2564 38.2156 14.3364 37.9629 15.426C37.9221 15.6072 37.8815 15.7886 37.8411 15.9699C37.6702 16.736 37.4981 17.5017 37.3208 18.2663C37.2121 18.7358 37.1067 19.2059 37.0035 19.6765C36.9446 19.9402 36.8822 20.203 36.8197 20.4658C36.591 21.5176 36.5771 22.229 37.0043 23.2193C37.0432 23.3186 37.0821 23.4179 37.1222 23.5203C37.2412 23.8192 37.3672 24.1142 37.495 24.4095C37.5874 24.6286 37.6796 24.8479 37.7717 25.0672C37.9149 25.4063 38.0588 25.745 38.205 26.0828C38.3476 26.4134 38.4866 26.7453 38.6251 27.0775C38.6691 27.177 38.7132 27.2764 38.7585 27.3789C39.261 28.6023 38.8828 29.6749 38.4971 30.8869C38.4564 31.0169 38.4156 31.147 38.3736 31.281C38.2877 31.5538 38.2012 31.8264 38.1141 32.0988C37.9812 32.5161 37.8515 32.9343 37.722 33.3526C37.6379 33.6184 37.5535 33.8841 37.469 34.1497C37.4306 34.2746 37.3922 34.3995 37.3526 34.5282C37.315 34.644 37.2774 34.7598 37.2386 34.8791C37.2064 34.9807 37.1742 35.0824 37.141 35.1872C36.9673 35.5275 36.7882 35.6698 36.4605 35.8629C35.6908 35.9266 35.0914 35.8176 34.3485 35.5905C34.1581 35.5341 33.9677 35.4777 33.7773 35.4214C33.4824 35.3321 33.1877 35.2422 32.8932 35.1519C32.6055 35.0642 32.3172 34.9789 32.0288 34.8937C31.8584 34.8418 31.688 34.7898 31.5125 34.7362C30.9789 34.6308 30.5989 34.6541 30.0707 34.7753C29.738 35.0151 29.738 35.0151 29.4674 35.3361C28.9271 35.9152 28.3672 36.443 27.7595 36.9506C27.6587 37.0432 27.5578 37.1358 27.4539 37.2313C27.0174 37.5382 26.7988 37.5649 26.2711 37.5712C26.1113 37.5742 25.9516 37.5773 25.787 37.5804C25.5297 37.5807 25.5297 37.5807 25.2672 37.5809C25.001 37.5832 25.001 37.5832 24.7293 37.5854C24.3539 37.5881 23.9785 37.5885 23.6031 37.5877C23.1244 37.5868 22.646 37.5929 22.1674 37.6007C21.708 37.607 21.2487 37.6063 20.7893 37.6064C20.6186 37.6096 20.4479 37.6128 20.2721 37.6161C19.4624 37.6077 18.9188 37.5823 18.292 37.039C18.1367 36.8764 17.9841 36.711 17.835 36.5427C17.6769 36.3944 17.5176 36.2474 17.3565 36.1024C17.1302 35.8916 16.9043 35.6802 16.6786 35.4686C16.3499 35.1626 16.0344 34.8891 15.6598 34.6394C14.5191 34.6815 13.4241 35.0846 12.3363 35.4057C10.4013 35.9744 10.4013 35.9744 9.54189 35.8629C9.07487 35.586 8.91205 35.3475 8.74914 34.8352C8.68796 34.6473 8.68796 34.6473 8.62555 34.4556C8.56285 34.2529 8.56285 34.2529 8.49888 34.0462C8.45439 33.9068 8.40989 33.7675 8.36405 33.624C8.27039 33.3293 8.17766 33.0343 8.08578 32.7391C7.94521 32.2881 7.80142 31.8383 7.65714 31.3884C7.56649 31.1018 7.47603 30.8151 7.38577 30.5284C7.34287 30.3941 7.29997 30.2598 7.25577 30.1215C6.85867 28.8354 6.9524 28.1575 7.518 26.9511C9.33086 23.1897 9.33086 23.1897 8.88384 19.2084C8.57522 18.2776 8.40584 17.3099 8.21213 16.3499C8.14133 16.0039 8.06704 15.6589 7.99151 15.3139C7.94519 15.0994 7.89888 14.8848 7.85257 14.6703C7.8201 14.5243 7.8201 14.5243 7.78697 14.3755C7.56521 13.328 7.57338 12.5965 8.07031 11.6443C8.11461 11.556 8.1589 11.4678 8.20454 11.3769C8.29794 11.1919 8.39225 11.0073 8.48743 10.8231C8.63277 10.5416 8.77514 10.2588 8.91709 9.97565C9.00853 9.79536 9.10013 9.61515 9.19192 9.43503C9.25567 9.30884 9.25567 9.30884 9.32071 9.18011C9.80022 8.25683 10.0976 7.98513 11.1733 8.12861ZM11.0443 11.1982C10.7157 11.5862 10.4767 11.9947 10.2471 12.4451C10.2031 12.5243 10.159 12.6035 10.1136 12.6851C9.58596 13.7155 10.0108 14.8724 10.2461 15.9485C10.2751 16.0818 10.3041 16.2151 10.334 16.3524C10.3952 16.6323 10.4567 16.9121 10.5185 17.1919C10.6127 17.6205 10.7047 18.0496 10.7968 18.4788C10.8567 18.7513 10.9167 19.0239 10.9768 19.2964C11.004 19.4247 11.0312 19.553 11.0593 19.6852C11.086 19.8041 11.1128 19.9231 11.1403 20.0456C11.1632 20.1501 11.186 20.2546 11.2095 20.3623C11.3253 20.6804 11.4513 20.8365 11.7171 21.0441C12.5817 20.9957 13.4457 20.4671 14.2248 20.1088C14.4202 20.0195 14.6164 19.9317 14.8132 19.8455C16.2318 19.2235 17.219 18.5447 18.2429 17.3734C18.3224 17.2904 18.4019 17.2075 18.4839 17.1221C18.7439 16.8415 18.9085 16.616 18.9991 16.2417C18.8766 15.659 18.4169 15.4464 17.9455 15.1387C17.8428 15.069 17.7401 14.9994 17.6343 14.9276C17.2949 14.6983 16.9532 14.4724 16.6114 14.2465C16.3722 14.0861 16.133 13.9255 15.894 13.7648C15.412 13.4414 14.9289 13.1199 14.4447 12.7999C14.0062 12.5099 13.57 12.2172 13.1361 11.9204C12.9951 11.8245 12.9951 11.8245 12.8513 11.7266C12.678 11.6086 12.5051 11.4898 12.3328 11.3702C11.7015 10.9181 11.7015 10.9181 11.0443 11.1982ZM33.3591 11.563C33.1769 11.6898 32.9948 11.8166 32.8126 11.9434C32.7191 12.0096 32.6256 12.0758 32.5292 12.144C32.077 12.4619 31.6173 12.7685 31.1583 13.0765C30.9772 13.199 30.7961 13.3216 30.6151 13.4443C30.248 13.693 29.8809 13.9415 29.5136 14.1899C29.334 14.3116 29.1543 14.4333 28.9746 14.555C28.8937 14.6097 28.8129 14.6644 28.7295 14.7207C28.4962 14.879 28.2638 15.0384 28.0314 15.1981C27.9436 15.2575 27.8557 15.3169 27.7652 15.3781C27.2603 15.699 27.2603 15.699 26.9651 16.1965C27.1497 16.7777 27.5446 17.1456 27.9635 17.5773C28.0451 17.6658 28.1268 17.7543 28.2109 17.8455C29.2215 18.9098 30.4313 19.4777 31.7493 20.0906C32.0102 20.2124 32.2698 20.3366 32.5296 20.461C32.6962 20.539 32.863 20.6169 33.0298 20.6947C33.1795 20.7651 33.3292 20.8355 33.4835 20.9081C33.8862 21.0471 34.0387 21.0813 34.4212 20.9081C34.7363 20.5931 34.7655 20.4348 34.8634 20.0068C34.8938 19.8761 34.9241 19.7454 34.9554 19.6107C35.003 19.3981 35.003 19.3981 35.0516 19.1811C35.0847 19.0356 35.1178 18.89 35.152 18.7401C35.2218 18.4316 35.2912 18.1231 35.36 17.8144C35.4656 17.3428 35.5738 16.8719 35.6822 16.401C35.7497 16.1013 35.8171 15.8016 35.8843 15.5019C35.9169 15.3613 35.9494 15.2206 35.983 15.0757C36.2439 13.887 36.1051 13.1562 35.5428 12.0967C35.4972 12.0043 35.4517 11.9118 35.4047 11.8166C35.1359 11.3004 35.1359 11.3004 34.6643 10.9885C34.1154 10.9814 33.7867 11.2529 33.3591 11.563ZM16.3395 23.4912C16.2036 23.9585 16.1253 24.2687 16.3289 24.7217C16.7718 25.1371 17.2886 25.2206 17.869 25.3606C17.9824 25.3906 18.0958 25.4205 18.2126 25.4514C18.8679 25.617 19.4653 25.7197 20.1462 25.6665C20.5061 25.4766 20.5061 25.4766 20.69 25.1227C20.7125 24.6347 20.7125 24.6347 20.554 24.171C20.186 23.8323 19.854 23.6908 19.3719 23.5746C19.2522 23.5453 19.1325 23.5159 19.0092 23.4857C18.8853 23.4567 18.7614 23.4277 18.6337 23.3978C18.4463 23.3519 18.4463 23.3519 18.2551 23.3051C17.2429 23.0301 17.2429 23.0301 16.3395 23.4912ZM27.3772 23.3808C27.2544 23.4075 27.1316 23.4342 27.0052 23.4618C26.2669 23.6381 25.7793 23.8027 25.3124 24.4429C25.2882 24.9427 25.2882 24.9427 25.4483 25.3946C26.0141 25.7718 26.4581 25.7292 27.1204 25.6105C27.4605 25.5349 27.7966 25.4496 28.1334 25.3606C28.2489 25.3327 28.3644 25.3049 28.4834 25.2762C29.1358 25.1086 29.1358 25.1086 29.6735 24.7217C29.8771 24.2687 29.7988 23.9585 29.6629 23.4912C28.8923 22.8788 28.2644 23.1713 27.3772 23.3808ZM15.8625 27.5294C15.716 27.5503 15.5695 27.5712 15.4186 27.5927C15.2619 27.6157 15.1053 27.6386 14.9439 27.6622C14.7014 27.6975 14.7014 27.6975 14.454 27.7334C14.113 27.7832 13.772 27.8333 13.431 27.8836C12.907 27.9607 12.3827 28.0358 11.8584 28.111C11.5273 28.1595 11.1963 28.2082 10.8653 28.257C10.7076 28.2794 10.5498 28.3018 10.3873 28.3249C10.2425 28.3466 10.0977 28.3684 9.94855 28.3908C9.75645 28.4189 9.75645 28.4189 9.56047 28.4475C9.46461 28.4719 9.36875 28.4963 9.26999 28.5215C9.04851 28.9644 9.29152 29.3787 9.43833 29.8263C9.47107 29.9282 9.50382 30.0301 9.53755 30.1351C9.60713 30.3507 9.67722 30.5661 9.74778 30.7813C9.85584 31.1118 9.96171 31.4428 10.0674 31.774C10.1351 31.983 10.203 32.192 10.271 32.4009C10.3028 32.5005 10.3345 32.6 10.3672 32.7026C10.4469 32.9431 10.5372 33.1799 10.6295 33.4158C11.0505 33.6263 11.4126 33.4277 11.8414 33.2974C12.0338 33.2411 12.2262 33.1849 12.4187 33.1287C12.7213 33.0391 13.0237 32.949 13.3261 32.8584C13.6182 32.7712 13.9108 32.6858 14.2036 32.6006C14.2923 32.5734 14.381 32.5462 14.4723 32.5182C15.1209 32.3305 15.6714 32.2914 16.3395 32.3282C16.6359 32.4933 16.6359 32.4933 16.8663 32.7275C16.9557 32.8143 17.0451 32.901 17.1372 32.9904C17.2807 33.1337 17.2807 33.1337 17.4271 33.2798C17.6527 33.4849 17.8793 33.6888 18.1069 33.8916C18.2106 33.9856 18.3144 34.0795 18.4213 34.1763C18.6022 34.3382 18.6022 34.3382 18.7867 34.5034C18.8607 34.5808 18.9347 34.6582 19.011 34.7379C19.7343 35.453 20.2748 35.6064 21.2768 35.6149C21.4755 35.6197 21.4755 35.6197 21.6781 35.6245C21.9575 35.6293 22.2369 35.6316 22.5162 35.6314C22.9381 35.6335 23.3575 35.6507 23.7789 35.6688C25.0594 35.6939 26.0484 35.6629 27.0433 34.7896C27.371 34.4644 27.6783 34.1277 27.9752 33.7742C28.2306 33.4786 28.5156 33.2263 28.8132 32.9739C28.891 32.9059 28.9688 32.8379 29.049 32.7679C29.6178 32.3046 30.0425 32.2658 30.7505 32.3282C31.1203 32.3947 31.4773 32.4915 31.8381 32.5958C31.9852 32.6366 31.9852 32.6366 32.1352 32.6781C32.4444 32.7641 32.753 32.852 33.0617 32.94C33.2728 32.999 33.484 33.058 33.6952 33.1168C34.2096 33.2603 34.7234 33.4055 35.2369 33.5517C35.6326 32.5987 35.9774 31.6373 36.2906 30.6542C36.3335 30.5234 36.3764 30.3926 36.4207 30.2578C36.4611 30.1312 36.5016 30.0046 36.5433 29.8741C36.5797 29.761 36.6162 29.6479 36.6537 29.5314C36.7368 29.1829 36.7379 28.8784 36.7324 28.5215C35.7046 28.3622 34.6764 28.205 33.6481 28.0493C33.2984 27.9962 32.9489 27.9425 32.5994 27.8883C32.0964 27.8104 31.5931 27.7343 31.0898 27.6585C30.9342 27.634 30.7785 27.6095 30.6181 27.5843C29.6065 27.4343 28.7764 27.3417 27.8456 27.8412C27.745 27.8947 27.6444 27.9483 27.5407 28.0034C27.3883 28.0874 27.3883 28.0874 27.2327 28.1731C27.1279 28.2286 27.0231 28.284 26.9151 28.3412C26.3597 28.6062 26.3597 28.6062 25.9921 29.0653C26.0691 29.484 26.1607 29.8956 26.2603 30.3093C26.3984 30.9317 26.4185 31.4361 26.2641 32.0563C25.847 32.3343 25.7621 32.3623 25.2922 32.3633C25.1792 32.3642 25.0663 32.3651 24.9499 32.3659C24.8284 32.3654 24.7068 32.3648 24.5816 32.3643C24.4564 32.3645 24.3313 32.3648 24.2023 32.3651C23.9376 32.3653 23.6729 32.3647 23.4083 32.3636C23.0028 32.3622 22.5973 32.3636 22.1919 32.3653C21.9348 32.3652 21.6778 32.3648 21.4207 32.3643C21.2385 32.3651 21.2385 32.3651 21.0525 32.3659C20.8831 32.3647 20.8831 32.3647 20.7102 32.3633C20.6109 32.3631 20.5116 32.3629 20.4093 32.3627C20.1462 32.3282 20.1462 32.3282 19.7383 32.0563C19.5508 31.309 19.6397 30.6931 19.7978 29.9575C19.8179 29.858 19.8379 29.7586 19.8586 29.6561C19.9078 29.4136 19.9588 29.1714 20.0102 28.9294C19.6591 28.7309 19.3079 28.5327 18.9566 28.3346C18.8574 28.2785 18.7582 28.2224 18.656 28.1646C18.5596 28.1103 18.4632 28.056 18.3639 28C18.2315 27.9252 18.2315 27.9252 18.0964 27.849C18.0101 27.8017 17.9239 27.7545 17.835 27.7058C17.7484 27.6548 17.6618 27.6039 17.5725 27.5514C17.0235 27.322 16.4376 27.4466 15.8625 27.5294Z" fill="white" stroke="white" stroke-width="2.13147" mask="url(#path-1-inside-1_4240_27768)"/>
</svg>
