<svg width="46" height="46" viewBox="0 0 46 46" fill="none" xmlns="http://www.w3.org/2000/svg">
<mask id="path-1-inside-1_4240_27767" fill="white">
<path d="M8.14932 20.5322C8.35131 20.6167 8.47926 20.7403 8.63296 20.8946C8.67202 20.9336 8.67202 20.9336 8.71187 20.9733C8.79899 21.0604 8.88571 21.1478 8.97244 21.2353C9.03487 21.2978 9.09732 21.3604 9.1598 21.4229C9.29429 21.5575 9.42861 21.6923 9.5628 21.8273C9.77524 22.0409 9.98806 22.2542 10.2009 22.4674C10.5379 22.805 10.8747 23.1429 11.2113 23.4808C11.8132 24.0852 12.4154 24.6892 13.018 25.293C13.2292 25.5047 13.4403 25.7166 13.6513 25.9286C13.7831 26.0609 13.915 26.1931 14.0469 26.3253C14.1077 26.3863 14.1684 26.4474 14.2291 26.5085C14.5191 26.8002 14.8096 27.0886 15.1231 27.3554C15.2879 27.4965 15.4366 27.6534 15.5882 27.8082C15.9059 27.5447 16.1972 27.2606 16.4881 26.968C16.5393 26.9167 16.5905 26.8654 16.6418 26.814C16.7515 26.7042 16.8611 26.5942 16.9707 26.4842C17.1442 26.3099 17.318 26.1358 17.4918 25.9617C17.8922 25.5607 18.2922 25.1595 18.6923 24.7582C19.059 24.3904 19.4259 24.0226 19.7929 23.655C19.9653 23.4823 20.1376 23.3095 20.3098 23.1365C20.4173 23.0286 20.525 22.9207 20.6327 22.8129C20.7056 22.7398 20.7784 22.6666 20.8512 22.5934C21.086 22.3586 21.3241 22.1317 21.5767 21.9161C21.7236 21.7886 21.8604 21.6515 21.9972 21.5132C22.0255 21.4848 22.0538 21.4564 22.083 21.4272C22.1716 21.3383 22.26 21.2492 22.3484 21.1601C22.4092 21.099 22.47 21.0379 22.5308 20.9769C22.6783 20.8288 22.8256 20.6806 22.9729 20.5322C23.186 20.6187 23.3294 20.7653 23.4883 20.926C23.5177 20.9553 23.5472 20.9847 23.5775 21.015C23.6762 21.1134 23.7744 21.2123 23.8726 21.3111C23.9433 21.3818 24.0139 21.4524 24.0846 21.523C24.2764 21.7148 24.4679 21.9069 24.6594 22.0991C24.8595 22.2999 25.0599 22.5004 25.2603 22.7009C25.6397 23.0807 26.0189 23.4607 26.3979 23.8409C26.8295 24.2736 27.2613 24.7061 27.6932 25.1385C28.5816 26.0281 29.4697 26.918 30.3575 27.8082C30.5595 27.7238 30.6874 27.6002 30.8411 27.4459C30.8671 27.4199 30.8932 27.3939 30.92 27.3671C31.0071 27.2801 31.0939 27.1926 31.1806 27.1052C31.243 27.0426 31.3055 26.9801 31.3679 26.9176C31.5024 26.783 31.6368 26.6481 31.7709 26.5132C31.9834 26.2995 32.1962 26.0863 32.4091 25.8731C32.7461 25.5355 33.0828 25.1976 33.4194 24.8596C34.0213 24.2553 34.6236 23.6513 35.2261 23.0475C35.4374 22.8358 35.6485 22.6239 35.8595 22.4119C35.9912 22.2796 36.1231 22.1474 36.255 22.0152C36.3158 21.9542 36.3766 21.8931 36.4373 21.832C36.7273 21.5402 37.0178 21.2519 37.3313 20.9851C37.4372 20.8944 37.536 20.7981 37.6335 20.6985C37.6648 20.6667 37.6962 20.6348 37.7285 20.602C37.7621 20.5675 37.7621 20.5675 37.7964 20.5322C38.0089 20.6188 38.1536 20.7645 38.3132 20.9239C38.3425 20.9526 38.3717 20.9814 38.4019 21.0111C38.4982 21.1061 38.5941 21.2016 38.69 21.2971C38.7567 21.3634 38.8235 21.4296 38.8903 21.4959C39.03 21.6348 39.1695 21.7738 39.3089 21.913C39.4878 22.0916 39.6676 22.2694 39.8476 22.4469C39.9857 22.5834 40.1232 22.7205 40.2605 22.8577C40.3265 22.9236 40.3928 22.9892 40.4593 23.0545C40.552 23.1458 40.6438 23.2378 40.7355 23.3302C40.7771 23.3706 40.7771 23.3706 40.8196 23.4119C40.8946 23.4885 40.8946 23.4885 41 23.6272C40.9908 23.8145 40.9083 23.9018 40.7775 24.0305C40.7429 24.0648 40.7083 24.0991 40.6726 24.1345C40.6362 24.1698 40.5998 24.2051 40.5622 24.2415C40.5273 24.2762 40.4923 24.3109 40.4563 24.3466C40.2857 24.5145 40.1119 24.676 39.9306 24.8323C39.7149 25.0207 39.5106 25.2179 39.3087 25.421C39.254 25.4757 39.254 25.4757 39.1981 25.5316C39.077 25.6527 38.9561 25.774 38.8352 25.8953C38.748 25.9827 38.6607 26.07 38.5734 26.1573C38.3861 26.3448 38.1989 26.5324 38.0117 26.7201C37.7157 27.0168 37.4194 27.3134 37.1232 27.6099C36.7078 28.0257 36.2925 28.4415 35.8773 28.8574C35.851 28.8837 35.8247 28.9101 35.7976 28.9372C35.6109 29.1242 35.4243 29.3113 35.2376 29.4983C35.0241 29.7121 34.8106 29.9259 34.5972 30.1398C34.5709 30.1661 34.5446 30.1925 34.5175 30.2196C34.0786 30.6592 33.6396 31.0987 33.2006 31.5382C32.9061 31.8329 32.6118 32.1278 32.3175 32.4227C32.1345 32.6062 31.9514 32.7895 31.7683 32.9727C31.6834 33.0577 31.5986 33.1427 31.5139 33.2277C31.3981 33.3439 31.2822 33.4599 31.1662 33.5758C31.1328 33.6094 31.0994 33.643 31.065 33.6776C30.8735 33.8687 30.6765 34.0454 30.4661 34.2155C30.2913 34.1386 30.1755 34.0466 30.0417 33.9112C30.0018 33.8711 29.9619 33.831 29.9208 33.7897C29.8782 33.7464 29.8355 33.703 29.7916 33.6583C29.7471 33.6135 29.7027 33.5688 29.6568 33.5227C29.5146 33.3795 29.3726 33.2358 29.2308 33.0922C29.0896 32.9495 28.9484 32.807 28.807 32.6646C28.7191 32.576 28.6313 32.4873 28.5438 32.3984C28.5032 32.3575 28.4626 32.3165 28.4208 32.2744C28.3682 32.2211 28.3682 32.2211 28.3146 32.1668C28.2067 32.0638 28.0968 31.9662 27.9838 31.8689C27.7344 31.652 27.5013 31.4208 27.2682 31.1867C27.222 31.1405 27.1759 31.0944 27.1284 31.0469C27.0032 30.9217 26.8782 30.7964 26.7532 30.671C26.622 30.5395 26.4907 30.4082 26.3595 30.2769C26.1115 30.0287 25.8637 29.7804 25.6159 29.5321C25.3335 29.2491 25.051 28.9663 24.7685 28.6835C24.1879 28.1023 23.6074 27.521 23.0271 26.9395C22.6476 27.25 22.3067 27.5984 21.9609 27.9452C21.8919 28.0143 21.8228 28.0834 21.7537 28.1524C21.5671 28.3391 21.3806 28.5259 21.1941 28.7127C20.9989 28.9083 20.8035 29.1036 20.6082 29.299C20.2387 29.6687 19.8693 30.0385 19.5 30.4084C19.0794 30.8296 18.6586 31.2507 18.2378 31.6718C17.3725 32.5376 16.5075 33.4036 15.6425 34.2698C15.4005 34.067 15.1691 33.8583 14.9471 33.6339C14.918 33.6048 14.889 33.5757 14.8591 33.5457C14.7968 33.4832 14.7346 33.4207 14.6724 33.358C14.5736 33.2586 14.4747 33.1592 14.3757 33.06C14.1299 32.8135 13.8844 32.5667 13.639 32.3199C13.4311 32.111 13.2231 31.9022 13.0149 31.6935C12.9181 31.5963 12.8215 31.4989 12.7248 31.4016C12.6646 31.3412 12.6044 31.2808 12.5441 31.2204C12.5047 31.1805 12.5047 31.1805 12.4645 31.1399C12.3232 30.9986 12.1783 30.8649 12.0264 30.735C11.7073 30.4583 11.413 30.1559 11.115 29.857C11.048 29.79 10.9811 29.7231 10.9142 29.6562C10.7336 29.4756 10.5531 29.2949 10.3727 29.1141C10.1838 28.9248 9.99463 28.7356 9.80552 28.5464C9.44794 28.1887 9.09049 27.8308 8.73309 27.4728C8.32599 27.0651 7.91873 26.6576 7.51146 26.25C6.67413 25.4121 5.837 24.5741 5 23.7358C5.07685 23.5757 5.15068 23.4631 5.27828 23.3388C5.30754 23.3099 5.3368 23.281 5.36694 23.2512C5.46963 23.1562 5.57421 23.0652 5.6804 22.9742C5.94941 22.7391 6.20069 22.4877 6.45249 22.2344C6.52569 22.161 6.52569 22.161 6.60037 22.0863C6.72864 21.9577 6.8568 21.8291 6.98491 21.7004C7.11623 21.5685 7.24771 21.4368 7.37917 21.305C7.63603 21.0476 7.89274 20.79 8.14932 20.5322Z"/>
</mask>
<path d="M8.14932 20.5322C8.35131 20.6167 8.47926 20.7403 8.63296 20.8946C8.67202 20.9336 8.67202 20.9336 8.71187 20.9733C8.79899 21.0604 8.88571 21.1478 8.97244 21.2353C9.03487 21.2978 9.09732 21.3604 9.1598 21.4229C9.29429 21.5575 9.42861 21.6923 9.5628 21.8273C9.77524 22.0409 9.98806 22.2542 10.2009 22.4674C10.5379 22.805 10.8747 23.1429 11.2113 23.4808C11.8132 24.0852 12.4154 24.6892 13.018 25.293C13.2292 25.5047 13.4403 25.7166 13.6513 25.9286C13.7831 26.0609 13.915 26.1931 14.0469 26.3253C14.1077 26.3863 14.1684 26.4474 14.2291 26.5085C14.5191 26.8002 14.8096 27.0886 15.1231 27.3554C15.2879 27.4965 15.4366 27.6534 15.5882 27.8082C15.9059 27.5447 16.1972 27.2606 16.4881 26.968C16.5393 26.9167 16.5905 26.8654 16.6418 26.814C16.7515 26.7042 16.8611 26.5942 16.9707 26.4842C17.1442 26.3099 17.318 26.1358 17.4918 25.9617C17.8922 25.5607 18.2922 25.1595 18.6923 24.7582C19.059 24.3904 19.4259 24.0226 19.7929 23.655C19.9653 23.4823 20.1376 23.3095 20.3098 23.1365C20.4173 23.0286 20.525 22.9207 20.6327 22.8129C20.7056 22.7398 20.7784 22.6666 20.8512 22.5934C21.086 22.3586 21.3241 22.1317 21.5767 21.9161C21.7236 21.7886 21.8604 21.6515 21.9972 21.5132C22.0255 21.4848 22.0538 21.4564 22.083 21.4272C22.1716 21.3383 22.26 21.2492 22.3484 21.1601C22.4092 21.099 22.47 21.0379 22.5308 20.9769C22.6783 20.8288 22.8256 20.6806 22.9729 20.5322C23.186 20.6187 23.3294 20.7653 23.4883 20.926C23.5177 20.9553 23.5472 20.9847 23.5775 21.015C23.6762 21.1134 23.7744 21.2123 23.8726 21.3111C23.9433 21.3818 24.0139 21.4524 24.0846 21.523C24.2764 21.7148 24.4679 21.9069 24.6594 22.0991C24.8595 22.2999 25.0599 22.5004 25.2603 22.7009C25.6397 23.0807 26.0189 23.4607 26.3979 23.8409C26.8295 24.2736 27.2613 24.7061 27.6932 25.1385C28.5816 26.0281 29.4697 26.918 30.3575 27.8082C30.5595 27.7238 30.6874 27.6002 30.8411 27.4459C30.8671 27.4199 30.8932 27.3939 30.92 27.3671C31.0071 27.2801 31.0939 27.1926 31.1806 27.1052C31.243 27.0426 31.3055 26.9801 31.3679 26.9176C31.5024 26.783 31.6368 26.6481 31.7709 26.5132C31.9834 26.2995 32.1962 26.0863 32.4091 25.8731C32.7461 25.5355 33.0828 25.1976 33.4194 24.8596C34.0213 24.2553 34.6236 23.6513 35.2261 23.0475C35.4374 22.8358 35.6485 22.6239 35.8595 22.4119C35.9912 22.2796 36.1231 22.1474 36.255 22.0152C36.3158 21.9542 36.3766 21.8931 36.4373 21.832C36.7273 21.5402 37.0178 21.2519 37.3313 20.9851C37.4372 20.8944 37.536 20.7981 37.6335 20.6985C37.6648 20.6667 37.6962 20.6348 37.7285 20.602C37.7621 20.5675 37.7621 20.5675 37.7964 20.5322C38.0089 20.6188 38.1536 20.7645 38.3132 20.9239C38.3425 20.9526 38.3717 20.9814 38.4019 21.0111C38.4982 21.1061 38.5941 21.2016 38.69 21.2971C38.7567 21.3634 38.8235 21.4296 38.8903 21.4959C39.03 21.6348 39.1695 21.7738 39.3089 21.913C39.4878 22.0916 39.6676 22.2694 39.8476 22.4469C39.9857 22.5834 40.1232 22.7205 40.2605 22.8577C40.3265 22.9236 40.3928 22.9892 40.4593 23.0545C40.552 23.1458 40.6438 23.2378 40.7355 23.3302C40.7771 23.3706 40.7771 23.3706 40.8196 23.4119C40.8946 23.4885 40.8946 23.4885 41 23.6272C40.9908 23.8145 40.9083 23.9018 40.7775 24.0305C40.7429 24.0648 40.7083 24.0991 40.6726 24.1345C40.6362 24.1698 40.5998 24.2051 40.5622 24.2415C40.5273 24.2762 40.4923 24.3109 40.4563 24.3466C40.2857 24.5145 40.1119 24.676 39.9306 24.8323C39.7149 25.0207 39.5106 25.2179 39.3087 25.421C39.254 25.4757 39.254 25.4757 39.1981 25.5316C39.077 25.6527 38.9561 25.774 38.8352 25.8953C38.748 25.9827 38.6607 26.07 38.5734 26.1573C38.3861 26.3448 38.1989 26.5324 38.0117 26.7201C37.7157 27.0168 37.4194 27.3134 37.1232 27.6099C36.7078 28.0257 36.2925 28.4415 35.8773 28.8574C35.851 28.8837 35.8247 28.9101 35.7976 28.9372C35.6109 29.1242 35.4243 29.3113 35.2376 29.4983C35.0241 29.7121 34.8106 29.9259 34.5972 30.1398C34.5709 30.1661 34.5446 30.1925 34.5175 30.2196C34.0786 30.6592 33.6396 31.0987 33.2006 31.5382C32.9061 31.8329 32.6118 32.1278 32.3175 32.4227C32.1345 32.6062 31.9514 32.7895 31.7683 32.9727C31.6834 33.0577 31.5986 33.1427 31.5139 33.2277C31.3981 33.3439 31.2822 33.4599 31.1662 33.5758C31.1328 33.6094 31.0994 33.643 31.065 33.6776C30.8735 33.8687 30.6765 34.0454 30.4661 34.2155C30.2913 34.1386 30.1755 34.0466 30.0417 33.9112C30.0018 33.8711 29.9619 33.831 29.9208 33.7897C29.8782 33.7464 29.8355 33.703 29.7916 33.6583C29.7471 33.6135 29.7027 33.5688 29.6568 33.5227C29.5146 33.3795 29.3726 33.2358 29.2308 33.0922C29.0896 32.9495 28.9484 32.807 28.807 32.6646C28.7191 32.576 28.6313 32.4873 28.5438 32.3984C28.5032 32.3575 28.4626 32.3165 28.4208 32.2744C28.3682 32.2211 28.3682 32.2211 28.3146 32.1668C28.2067 32.0638 28.0968 31.9662 27.9838 31.8689C27.7344 31.652 27.5013 31.4208 27.2682 31.1867C27.222 31.1405 27.1759 31.0944 27.1284 31.0469C27.0032 30.9217 26.8782 30.7964 26.7532 30.671C26.622 30.5395 26.4907 30.4082 26.3595 30.2769C26.1115 30.0287 25.8637 29.7804 25.6159 29.5321C25.3335 29.2491 25.051 28.9663 24.7685 28.6835C24.1879 28.1023 23.6074 27.521 23.0271 26.9395C22.6476 27.25 22.3067 27.5984 21.9609 27.9452C21.8919 28.0143 21.8228 28.0834 21.7537 28.1524C21.5671 28.3391 21.3806 28.5259 21.1941 28.7127C20.9989 28.9083 20.8035 29.1036 20.6082 29.299C20.2387 29.6687 19.8693 30.0385 19.5 30.4084C19.0794 30.8296 18.6586 31.2507 18.2378 31.6718C17.3725 32.5376 16.5075 33.4036 15.6425 34.2698C15.4005 34.067 15.1691 33.8583 14.9471 33.6339C14.918 33.6048 14.889 33.5757 14.8591 33.5457C14.7968 33.4832 14.7346 33.4207 14.6724 33.358C14.5736 33.2586 14.4747 33.1592 14.3757 33.06C14.1299 32.8135 13.8844 32.5667 13.639 32.3199C13.4311 32.111 13.2231 31.9022 13.0149 31.6935C12.9181 31.5963 12.8215 31.4989 12.7248 31.4016C12.6646 31.3412 12.6044 31.2808 12.5441 31.2204C12.5047 31.1805 12.5047 31.1805 12.4645 31.1399C12.3232 30.9986 12.1783 30.8649 12.0264 30.735C11.7073 30.4583 11.413 30.1559 11.115 29.857C11.048 29.79 10.9811 29.7231 10.9142 29.6562C10.7336 29.4756 10.5531 29.2949 10.3727 29.1141C10.1838 28.9248 9.99463 28.7356 9.80552 28.5464C9.44794 28.1887 9.09049 27.8308 8.73309 27.4728C8.32599 27.0651 7.91873 26.6576 7.51146 26.25C6.67413 25.4121 5.837 24.5741 5 23.7358C5.07685 23.5757 5.15068 23.4631 5.27828 23.3388C5.30754 23.3099 5.3368 23.281 5.36694 23.2512C5.46963 23.1562 5.57421 23.0652 5.6804 22.9742C5.94941 22.7391 6.20069 22.4877 6.45249 22.2344C6.52569 22.161 6.52569 22.161 6.60037 22.0863C6.72864 21.9577 6.8568 21.8291 6.98491 21.7004C7.11623 21.5685 7.24771 21.4368 7.37917 21.305C7.63603 21.0476 7.89274 20.79 8.14932 20.5322Z" fill="white" stroke="white" stroke-width="2" mask="url(#path-1-inside-1_4240_27767)"/>
<path d="M22.4467 16.0605L22.4379 16.0615C19.4022 16.176 16.6077 17.8992 14.5511 19.9355C14.5208 19.906 14.4845 19.8743 14.4457 19.835L14.4437 19.832L14.3529 19.7422C14.2561 19.6453 14.1592 19.5483 14.0619 19.4502L14.0609 19.4492L13.8578 19.2441H13.8568C13.679 19.0659 13.5013 18.8869 13.3236 18.708C13.1416 18.5248 12.9596 18.3416 12.7777 18.1592C12.521 17.9016 12.2646 17.6436 12.0082 17.3857C12.0403 17.3552 12.0778 17.3223 12.1205 17.2842L12.1224 17.2812L12.2191 17.1943C12.2831 17.1365 12.3473 17.079 12.4115 17.0215L12.4125 17.0205C12.4922 16.9487 12.5704 16.8764 12.6469 16.8057C12.9995 16.4806 13.3772 16.1818 13.7738 15.8799C13.806 15.8554 13.8383 15.8309 13.8715 15.8057C16.2029 14.0411 18.8345 12.898 21.7279 12.5576C21.7668 12.553 21.806 12.5487 21.8461 12.5439L21.8451 12.543C22.0776 12.5175 22.3135 12.5097 22.5697 12.5029C26.6311 12.4109 30.4177 14.1378 33.4232 16.877L33.4242 16.8779C33.545 16.9875 33.6669 17.0934 33.7875 17.1973C33.8645 17.2643 33.939 17.3347 34.014 17.4062C33.8708 17.5622 33.7224 17.7163 33.5677 17.8701L33.5658 17.8721C33.5274 17.9107 33.4891 17.9495 33.4496 17.9893C33.2747 18.1638 33.1077 18.3254 32.932 18.4746L32.9291 18.4766C32.7392 18.6402 32.5565 18.8138 32.3812 18.9873L31.8763 19.4971L31.4711 19.9023C31.3872 19.8272 31.3022 19.7493 31.2152 19.667C28.8244 17.408 25.8104 15.9892 22.4467 16.0605Z" fill="white" stroke="white"/>
</svg>
